<?xml version="1.0" standalone="no"?>
<!DOCTYPE svg PUBLIC "-//W3C//DTD SVG 20010904//EN"
 "http://www.w3.org/TR/2001/REC-SVG-20010904/DTD/svg10.dtd">
<svg version="1.0" xmlns="http://www.w3.org/2000/svg"
 width="471.000000pt" height="530.000000pt" viewBox="0 0 471.000000 530.000000"
 preserveAspectRatio="xMidYMid meet">

<g transform="translate(0.000000,530.000000) scale(0.100000,-0.100000)"
fill="#000000" stroke="none">
<path d="M3045 4831 c61 -14 95 -29 95 -43 0 -6 -6 -27 -12 -46 -11 -30 -16
-33 -40 -28 -32 6 -33 5 -13 -34 9 -16 27 -33 40 -36 30 -7 30 -6 6 -52 -10
-20 -24 -56 -31 -79 -12 -39 -14 -41 -36 -31 -13 6 -26 9 -28 7 -8 -10 -278
-711 -274 -714 1 -2 11 -5 22 -7 15 -2 24 12 48 75 17 43 32 76 34 74 3 -2
-16 -55 -42 -118 -26 -63 -55 -139 -65 -169 -10 -30 -16 -41 -13 -23 4 26 1
32 -16 38 -12 4 -25 3 -30 -2 -11 -12 -120 -222 -120 -230 0 -10 78 -35 89
-29 4 3 16 32 26 66 10 33 20 58 23 56 4 -5 -25 -99 -40 -128 -8 -16 -12 -16
-61 3 -28 11 -53 22 -55 24 -1 1 31 92 72 201 80 213 273 731 337 905 21 59
39 111 39 117 0 6 -21 18 -47 26 l-48 14 -17 -37 c-16 -32 -103 -255 -311
-791 -33 -85 -86 -219 -117 -297 -31 -79 -52 -139 -46 -134 11 9 99 -14 144
-38 19 -10 37 -51 23 -51 -12 0 -35 -50 -47 -102 -11 -48 11 -30 31 25 10 28
24 64 32 80 13 26 14 27 43 12 31 -16 37 -29 19 -40 -10 -7 -31 -49 -34 -70
-3 -26 -18 -65 -24 -65 -7 0 -141 51 -195 74 -21 10 -42 14 -46 9 -5 -4 -35
-78 -69 -163 -33 -85 -89 -229 -125 -320 -35 -91 -89 -228 -119 -305 -231
-588 -288 -737 -283 -742 2 -2 12 16 21 41 18 47 24 52 40 37 6 -4 31 -16 57
-26 58 -21 73 -37 60 -62 -6 -10 -17 -36 -25 -58 -9 -22 -39 -100 -68 -173
-28 -73 -48 -136 -45 -139 10 -10 14 -2 90 193 42 108 79 190 87 192 8 1 22
-3 32 -11 17 -12 17 -15 -7 -72 -14 -33 -46 -114 -72 -180 -25 -66 -57 -143
-70 -171 -13 -28 -24 -54 -24 -57 0 -4 -11 -30 -24 -59 -14 -29 -30 -72 -38
-96 -9 -30 -18 -42 -32 -42 -14 0 -16 -3 -7 -14 8 -9 8 -22 2 -39 -8 -19 -15
-24 -35 -20 -29 6 -31 11 -14 48 8 18 8 29 1 36 -7 7 -13 0 -18 -23 -4 -18 -7
-36 -6 -40 1 -10 -46 9 -96 38 -46 27 -57 18 -20 -16 21 -20 83 -57 100 -59 4
0 22 -7 41 -15 21 -9 50 -12 75 -9 47 6 66 23 26 23 l-27 0 22 37 c15 26 18
38 9 43 -7 5 -8 9 -1 11 18 7 53 107 39 113 -7 2 -5 5 5 5 11 1 25 24 43 70
14 38 33 72 42 75 9 4 13 9 10 12 -3 4 3 24 14 45 11 22 17 39 13 39 -3 0 1
12 11 26 9 14 19 38 21 52 3 15 10 32 16 39 6 8 8 16 5 20 -4 3 3 19 14 34 11
16 22 41 25 55 7 39 31 68 55 69 23 0 25 5 124 260 32 83 96 247 142 365 46
118 97 249 113 290 16 41 68 173 115 292 47 120 85 222 85 227 0 5 -12 12 -27
16 -15 3 -22 9 -17 13 12 8 30 55 39 99 7 33 24 46 63 47 29 1 9 -44 230 526
86 219 169 433 233 594 21 55 39 103 39 107 0 4 -15 16 -32 28 -23 14 -27 21
-15 21 9 0 17 6 17 13 0 7 8 29 19 49 10 20 15 40 11 45 -10 11 6 53 20 53 55
0 -148 98 -217 105 -47 4 -48 4 -8 -4z m167 -88 c-8 -43 -14 -73 -17 -73 -1 0
-16 5 -33 11 l-31 10 14 40 c8 22 17 45 21 50 10 16 49 -16 46 -38z m-12 -89
c0 -6 -22 -60 -138 -336 -20 -48 -38 -86 -39 -84 -6 6 162 426 170 426 4 0 7
-3 7 -6z m-146 -243 c-9 -23 -18 -40 -20 -38 -2 2 4 22 13 45 9 23 18 40 20
38 2 -2 -4 -22 -13 -45z m-75 -192 c-44 -117 -85 -207 -64 -144 21 64 109 285
112 282 2 -2 -20 -64 -48 -138z m27 -36 c-8 -15 -15 -25 -16 -21 0 12 23 58
27 54 3 -2 -2 -17 -11 -33z m-117 -197 c-12 -31 -24 -55 -26 -53 -2 2 6 30 18
61 12 31 24 55 26 53 2 -2 -6 -30 -18 -61z m-168 -447 c-5 -13 -10 -19 -10
-12 -1 15 10 45 15 40 3 -2 0 -15 -5 -28z"/>
<path d="M2976 4805 c-9 -26 -7 -32 5 -12 6 10 9 21 6 23 -2 3 -7 -2 -11 -11z"/>
<path d="M2926 4735 c-9 -26 -7 -32 5 -12 6 10 9 21 6 23 -2 3 -7 -2 -11 -11z"/>
<path d="M2391 3327 c-13 -21 -12 -21 5 -5 10 10 16 20 13 22 -3 3 -11 -5 -18
-17z"/>
<path d="M1740 1670 c-7 -17 -10 -33 -8 -36 3 -3 11 9 17 27 6 18 9 34 7 36
-2 2 -9 -10 -16 -27z"/>
<path d="M1711 1594 c-6 -15 -9 -29 -7 -32 3 -2 10 8 16 23 14 36 7 43 -9 9z"/>
<path d="M1676 1505 c-9 -26 -7 -32 5 -12 6 10 9 21 6 23 -2 3 -7 -2 -11 -11z"/>
<path d="M1656 1455 c-3 -9 -6 -22 -5 -28 0 -7 5 -1 10 12 5 13 8 26 5 28 -2
2 -6 -3 -10 -12z"/>
<path d="M1790 1316 c0 -2 -11 -33 -25 -69 -13 -37 -21 -68 -16 -71 4 -3 20
25 35 62 29 75 30 82 16 82 -5 0 -10 -2 -10 -4z"/>
<path d="M1616 1295 c-9 -26 -7 -32 5 -12 6 10 9 21 6 23 -2 3 -7 -2 -11 -11z"/>
<path d="M1586 1205 c-9 -26 -7 -32 5 -12 6 10 9 21 6 23 -2 3 -7 -2 -11 -11z"/>
<path d="M1712 1110 c-12 -29 -17 -52 -11 -55 5 -4 12 2 16 12 3 10 12 33 19
52 16 39 17 41 5 41 -4 0 -18 -22 -29 -50z"/>
<path d="M1550 1100 c-6 -11 -8 -20 -6 -20 3 0 10 9 16 20 6 11 8 20 6 20 -3
0 -10 -9 -16 -20z"/>
<path d="M1697 863 c-26 -84 -108 -316 -118 -335 -17 -32 0 -19 25 20 14 20
27 53 29 72 2 19 12 51 22 70 30 55 75 204 66 213 -5 5 -16 -12 -24 -40z"/>
<path d="M1538 667 c-107 -248 -124 -297 -114 -324 7 -16 9 -16 21 7 28 50
199 529 192 536 -2 2 -47 -96 -99 -219z"/>
</g>
</svg>
