<?xml version="1.0" encoding="iso-8859-1"?>
<!-- Uploaded to: SVG Repo, www.svgrepo.com, Generator: SVG Repo Mixer Tools -->
<svg height="800px" width="800px" version="1.1" id="Capa_1" xmlns="http://www.w3.org/2000/svg" xmlns:xlink="http://www.w3.org/1999/xlink" 
	 viewBox="0 0 317.037 317.037" xml:space="preserve">
<g>
	<polygon style="fill:#010002;" points="313.831,39.438 280.718,6.325 115.724,147.817 172.339,204.432 	"/>
	<polygon style="fill:#010002;" points="164.665,211.28 108.882,155.492 58.293,228.75 91.406,261.863 	"/>
	<path style="fill:#010002;" d="M51.418,300.638l30.655-39.798l-23.143-22.724L22.988,265.23c0,0-1.556,33.428-22.898,51.807
		C0.095,317.037,25.261,297.75,51.418,300.638z M40.387,288.955c-3.911,0-7.082-3.171-7.082-7.082s3.171-7.082,7.082-7.082
		s7.082,3.171,7.082,7.082S44.298,288.955,40.387,288.955z"/>
	<path style="fill:#010002;" d="M286.402,0.005l30.546,30.546C317.035-1.132,286.402,0.005,286.402,0.005z"/>
</g>
</svg>